<svg width="16" height="16" viewBox="0 0 16 16" fill="none" xmlns="http://www.w3.org/2000/svg">
<g id="ArrowDownRight">
<path id="Vector" d="M4.20483 12.378L4.20489 12.378L4.20836 12.3746L10.8713 5.71165L10.8713 10.6217C10.8713 10.7517 10.9229 10.8765 11.0149 10.9685C11.1069 11.0604 11.2316 11.1121 11.3617 11.1121C11.4918 11.1121 11.6165 11.0604 11.7085 10.9685C11.8005 10.8765 11.8522 10.7517 11.8522 10.6217L11.8522 4.5279C11.8522 4.39783 11.8005 4.27308 11.7085 4.1811C11.6165 4.08912 11.4918 4.03745 11.3617 4.03745L5.26796 4.03745C5.13789 4.03745 5.01314 4.08912 4.92116 4.1811C4.82918 4.27308 4.77751 4.39783 4.77751 4.5279C4.77751 4.65798 4.82919 4.78273 4.92116 4.87471C5.01314 4.96668 5.13789 5.01836 5.26796 5.01836L10.178 5.01836L3.51507 11.6813L3.51501 11.6812L3.51166 11.6848C3.42503 11.7778 3.37787 11.9007 3.38011 12.0278C3.38235 12.1548 3.43382 12.2761 3.52368 12.3659C3.61354 12.4558 3.73477 12.5073 3.86183 12.5095C3.98889 12.5118 4.11186 12.4646 4.20483 12.378Z" fill="#312580" stroke="#312580" stroke-width="0.277778"/>
</g>
</svg>
