<svg width="24" height="25" viewBox="0 0 24 25" fill="none" xmlns="http://www.w3.org/2000/svg">
<g id="ArrowUpLeft">
<path id="Vector" d="M6.54983 19.2442L6.54977 19.2442C6.41875 19.3751 6.24114 19.4486 6.05596 19.4486C5.87078 19.4486 5.69318 19.3751 5.56215 19.2442L5.56203 19.2441C5.43117 19.1131 5.35767 18.9355 5.35767 18.7503C5.35767 18.5651 5.43117 18.3875 5.56203 18.2565L5.56209 18.2564L16.3139 7.50464H8.29554C8.11022 7.50464 7.93248 7.43102 7.80143 7.29997C7.67038 7.16892 7.59676 6.99118 7.59676 6.80585C7.59676 6.62052 7.67038 6.44278 7.80143 6.31174C7.93248 6.18069 8.11022 6.10707 8.29554 6.10707H18.0004C18.1857 6.10707 18.3635 6.18069 18.4945 6.31174C18.6256 6.44278 18.6992 6.62052 18.6992 6.80585V16.5107C18.6992 16.696 18.6256 16.8738 18.4945 17.0048C18.3635 17.1359 18.1857 17.2095 18.0004 17.2095C17.8151 17.2095 17.6373 17.1359 17.5063 17.0048C17.3752 16.8738 17.3016 16.696 17.3016 16.5107V8.49238L6.54983 19.2442Z" fill="black" stroke="black" stroke-width="0.277778"/>
</g>
</svg>
