<svg width="25" height="18" viewBox="0 0 25 18" fill="none" xmlns="http://www.w3.org/2000/svg">
    <path d="M23.7499 3.40189C23.4784 2.39331 22.6832 1.59809 21.6746 1.32655C19.832 0.822266 12.4616 0.822266 12.4616 0.822266C12.4616 0.822266 5.09129 0.822266 3.2487 1.30716C2.25953 1.5787 1.44491 2.39331 1.17337 3.40189C0.688477 5.24448 0.688477 9.06542 0.688477 9.06542C0.688477 9.06542 0.688477 12.9058 1.17337 14.729C1.44491 15.7375 2.24013 16.5328 3.2487 16.8043C5.11069 17.3086 12.4616 17.3086 12.4616 17.3086C12.4616 17.3086 19.832 17.3086 21.6746 16.8237C22.6832 16.5522 23.4784 15.7569 23.7499 14.7484C24.2348 12.9058 24.2348 9.08482 24.2348 9.08482C24.2348 9.08482 24.2542 5.24448 23.7499 3.40189Z" fill="#666476"/>
    <path d="M10.1143 12.5954L16.2433 9.06541L10.1143 5.5354V12.5954Z" fill="white"/>
    </svg>
    