<svg width="25" height="24" viewBox="0 0 25 24" fill="none" xmlns="http://www.w3.org/2000/svg">
    <path d="M24.2838 7.20905C24.2272 5.95538 24.0247 5.0976 23.7374 4.34823C23.4359 3.57529 23.0355 2.91546 22.3808 2.26506C21.7261 1.61465 21.0714 1.20462 20.2989 0.907694C19.55 0.615484 18.6927 0.417536 17.4398 0.360979C16.1822 0.304422 15.7818 0.290283 12.5882 0.290283C9.39 0.290283 8.98963 0.304422 7.73671 0.360979C6.48379 0.417536 5.62653 0.620197 4.8776 0.907694C4.10041 1.20933 3.44098 1.60994 2.79097 2.26506C2.14096 2.92017 1.73117 3.57529 1.43442 4.34823C1.1471 5.0976 0.944559 5.95538 0.888036 7.20905C0.831514 8.46744 0.817383 8.86805 0.817383 12.0635C0.817383 15.2637 0.831514 15.6643 0.888036 16.918C0.944559 18.1716 1.1471 19.0294 1.43442 19.7788C1.73588 20.5517 2.13625 21.2116 2.79097 21.862C3.44098 22.5171 4.10041 22.9224 4.87289 23.2193C5.62182 23.5115 6.47908 23.7095 7.732 23.766C8.98963 23.8226 9.39 23.8367 12.5835 23.8367C15.7818 23.8367 16.1822 23.8226 17.4351 23.766C18.688 23.7095 19.5453 23.5068 20.2942 23.2193C21.0667 22.9177 21.7261 22.5171 22.3761 21.862C23.0261 21.2068 23.4359 20.5517 23.7327 19.7788C24.0247 19.0294 24.2225 18.1716 24.279 16.918C24.3356 15.6596 24.3497 15.259 24.3497 12.0635C24.3497 8.86805 24.3403 8.46273 24.2838 7.20905ZM22.1689 16.8237C22.117 17.9737 21.9239 18.6005 21.7638 19.0106C21.5518 19.5573 21.2928 19.9532 20.8783 20.3679C20.4638 20.7827 20.0728 21.0325 19.5217 21.254C19.1072 21.4142 18.4807 21.6075 17.3362 21.6593C16.0974 21.7159 15.7253 21.73 12.5788 21.73C9.43239 21.73 9.06029 21.7159 7.8215 21.6593C6.6722 21.6075 6.04574 21.4142 5.63595 21.254C5.08956 21.0419 4.6939 20.7827 4.2794 20.3679C3.8649 19.9532 3.61526 19.562 3.39388 19.0106C3.23373 18.5958 3.04061 17.969 2.9888 16.8237C2.93228 15.5842 2.91815 15.2118 2.91815 12.0635C2.91815 8.91518 2.93228 8.54285 2.9888 7.30332C3.04061 6.15333 3.23373 5.52649 3.39388 5.11646C3.60584 4.56974 3.8649 4.17384 4.2794 3.7591C4.6939 3.34435 5.08485 3.09455 5.63595 2.87304C6.05045 2.7128 6.67691 2.51956 7.8215 2.46772C9.06029 2.41116 9.43239 2.39702 12.5788 2.39702C15.7253 2.39702 16.0974 2.41116 17.3362 2.46772C18.4855 2.51956 19.1119 2.7128 19.5217 2.87304C20.0681 3.08513 20.4638 3.34435 20.8783 3.7591C21.2928 4.17384 21.5424 4.56503 21.7638 5.11646C21.9239 5.53121 22.117 6.15804 22.1689 7.30332C22.2254 8.54285 22.2395 8.91518 22.2395 12.0635C22.2395 15.2118 22.2207 15.5842 22.1689 16.8237Z" fill="#666476"/>
    <path d="M12.5787 6.01196C9.23443 6.01196 6.53076 8.72197 6.53076 12.0635C6.53076 15.4098 9.23914 18.1151 12.5787 18.1151C15.9183 18.1151 18.6266 15.4004 18.6266 12.0635C18.6266 8.71726 15.923 6.01196 12.5787 6.01196ZM12.5787 15.9895C10.412 15.9895 8.65508 14.2315 8.65508 12.0635C8.65508 9.89552 10.412 8.13755 12.5787 8.13755C14.7454 8.13755 16.5023 9.89552 16.5023 12.0635C16.5023 14.2315 14.7454 15.9895 12.5787 15.9895Z" fill="#666476"/>
    <path d="M18.8623 7.19014C19.6427 7.19014 20.2754 6.55711 20.2754 5.77622C20.2754 4.99534 19.6427 4.3623 18.8623 4.3623C18.0819 4.3623 17.4492 4.99534 17.4492 5.77622C17.4492 6.55711 18.0819 7.19014 18.8623 7.19014Z" fill="#666476"/>
    <path d="M0.803223 12.0635C0.803223 15.2637 0.817353 15.6643 0.873876 16.918C0.930399 18.1716 1.13294 19.0294 1.42026 19.7788C1.72172 20.5517 2.12209 21.2116 2.77681 21.862C3.42682 22.5124 4.08625 22.9224 4.85873 23.2193C5.60766 23.5115 6.46492 23.7095 7.71784 23.766C8.97547 23.8226 9.37584 23.8367 12.5694 23.8367C15.7676 23.8367 16.168 23.8226 17.4209 23.766C18.6738 23.7095 19.5311 23.5068 20.28 23.2193C21.0525 22.9177 21.7119 22.5171 22.3619 21.862C23.012 21.2116 23.4217 20.5517 23.7185 19.7788C24.0105 19.0294 24.2084 18.1716 24.2649 16.918C24.3214 15.6596 24.3355 15.259 24.3355 12.0635C24.3355 8.86334 24.3214 8.46273 24.2649 7.20905C24.2084 5.95538 24.0058 5.0976 23.7185 4.34823C23.417 3.57529 23.0167 2.91546 22.3619 2.26506C21.7166 1.60994 21.0572 1.20462 20.2847 0.907694C19.5358 0.615484 18.6785 0.417536 17.4256 0.360979C16.168 0.304422 15.7676 0.290283 12.5741 0.290283C9.37584 0.290283 8.97547 0.304422 7.72255 0.360979C6.46963 0.417536 5.61237 0.620197 4.86344 0.907694C4.09096 1.20933 3.43153 1.60994 2.78152 2.26506C2.13151 2.92017 1.72172 3.57529 1.42497 4.34823C1.13294 5.0976 0.930399 5.95538 0.873876 7.20905C0.817353 8.46273 0.803223 8.86334 0.803223 12.0635ZM2.92754 12.0635C2.92754 8.9199 2.94167 8.54285 2.99819 7.30332C3.05 6.15333 3.24312 5.52649 3.40327 5.11646C3.61523 4.56974 3.87429 4.17384 4.28879 3.7591C4.70329 3.34435 5.09424 3.09455 5.64534 2.87304C6.05984 2.7128 6.6863 2.51956 7.83089 2.46772C9.06968 2.41116 9.44178 2.39702 12.5882 2.39702C15.7347 2.39702 16.1068 2.41116 17.3456 2.46772C18.4949 2.51956 19.1213 2.7128 19.5311 2.87304C20.0775 3.08513 20.4731 3.34435 20.8876 3.7591C21.3021 4.17384 21.5518 4.56503 21.7732 5.11646C21.9333 5.53121 22.1264 6.15804 22.1782 7.30332C22.2348 8.54285 22.2489 8.91518 22.2489 12.0635C22.2489 15.2118 22.2348 15.5842 22.1782 16.8237C22.1264 17.9737 21.9333 18.6005 21.7732 19.0106C21.5612 19.5573 21.3021 19.9532 20.8876 20.3679C20.4731 20.7827 20.0822 21.0325 19.5311 21.254C19.1166 21.4142 18.4901 21.6075 17.3456 21.6593C16.1068 21.7159 15.7347 21.73 12.5882 21.73C9.44178 21.73 9.06968 21.7159 7.83089 21.6593C6.68159 21.6075 6.05513 21.4142 5.64534 21.254C5.09895 21.0419 4.70329 20.7827 4.28879 20.3679C3.87429 19.9532 3.62465 19.562 3.40327 19.0106C3.24312 18.5958 3.05 17.969 2.99819 16.8237C2.93696 15.5842 2.92754 15.2071 2.92754 12.0635Z" fill="#666476"/>
    </svg>
    