<svg width="24" height="24" viewBox="0 0 24 24" fill="none" xmlns="http://www.w3.org/2000/svg">
    <g clip-path="url(#clip0_17_251)">
    <path d="M20.694 7.3353C20.703 7.54251 20.703 7.7403 20.703 7.94751C20.7121 14.2297 16.0966 21.4821 7.65591 21.4821C5.16641 21.4821 2.72234 20.738 0.623535 19.344C0.986965 19.3911 1.3504 19.41 1.71383 19.41C3.77629 19.41 5.78424 18.6941 7.41059 17.3661C5.44807 17.3284 3.72178 16.0004 3.12212 14.0602C3.81263 14.2015 4.52132 14.1732 5.19367 13.9754C3.05852 13.5422 1.52302 11.5925 1.51394 9.32263C1.51394 9.30379 1.51394 9.28496 1.51394 9.26612C2.14994 9.63344 2.86772 9.84065 3.59458 9.85949C1.58662 8.46554 0.959708 5.68705 2.1772 3.51135C4.51224 6.48763 7.94665 8.28658 11.6355 8.48437C11.2629 6.83612 11.7718 5.10309 12.962 3.93519C14.8064 2.13623 17.7138 2.23042 19.4583 4.1424C20.485 3.93519 21.4753 3.5396 22.3748 2.98391C22.0296 4.08588 21.3118 5.01833 20.3578 5.6117C21.2664 5.49868 22.1568 5.24437 22.9927 4.86763C22.3748 5.82833 21.5934 6.65716 20.694 7.3353Z" fill="#666476"/>
    </g>
    <defs>
    <clipPath id="clip0_17_251">
    <rect x="0.0351562" y="0.290283" width="23.5464" height="23.5464" rx="5.88661" fill="white"/>
    </clipPath>
    </defs>
    </svg>
    