<svg width="25" height="24" viewBox="0 0 25 24" fill="none" xmlns="http://www.w3.org/2000/svg">
    <g clip-path="url(#clip0_17_249)">
    <path d="M0.918457 3.43149C0.918457 2.67387 1.18363 2.04885 1.71395 1.55642C2.24426 1.06396 2.9337 0.817749 3.78221 0.817749C4.61559 0.817749 5.28985 1.06017 5.80503 1.54505C6.33534 2.04507 6.60051 2.6966 6.60051 3.49968C6.60051 4.22698 6.34294 4.83305 5.82775 5.31794C5.29744 5.81796 4.60043 6.06797 3.73676 6.06797H3.71403C2.88065 6.06797 2.2064 5.81796 1.69122 5.31794C1.17604 4.81792 0.918457 4.1891 0.918457 3.43149ZM1.21392 23.3187V8.13624H6.25959V23.3187H1.21392ZM9.05516 23.3187H14.1008V14.8411C14.1008 14.3107 14.1614 13.9016 14.2827 13.6137C14.4948 13.0986 14.8168 12.6629 15.2486 12.3069C15.6804 11.9508 16.2221 11.7728 16.8737 11.7728C18.5707 11.7728 19.4192 12.9167 19.4192 15.2047V23.3187H24.4649V14.6138C24.4649 12.3713 23.9346 10.6704 22.8739 9.5113C21.8133 8.35216 20.4117 7.77259 18.6692 7.77259C16.7146 7.77259 15.1918 8.61353 14.1008 10.2954V10.3409H14.0781L14.1008 10.2954V8.13624H9.05516C9.08546 8.6211 9.10062 10.1287 9.10062 12.6592C9.10062 15.1896 9.08546 18.7427 9.05516 23.3187Z" fill="#666476"/>
    </g>
    <defs>
    <clipPath id="clip0_17_249">
    <rect width="23.5464" height="23.5464" fill="white" transform="translate(0.918457 0.290283)"/>
    </clipPath>
    </defs>
    </svg>
    