<svg width="95" height="33" viewBox="0 0 95 33" fill="none" xmlns="http://www.w3.org/2000/svg">
    <g clip-path="url(#clip0_17_195)">
    <path d="M86.6106 0.715068H7.53426C7.24601 0.715068 6.96123 0.715068 6.67375 0.71664C6.4331 0.718212 6.19437 0.722779 5.95141 0.726623C5.42359 0.732834 4.89701 0.779269 4.37625 0.865525C3.85622 0.953659 3.35248 1.11982 2.88207 1.35838C2.41223 1.59896 1.98293 1.91156 1.60973 2.28486C1.23458 2.6571 0.92186 3.08737 0.683598 3.55911C0.44468 4.02991 0.279013 4.53442 0.192319 5.05521C0.104801 5.57534 0.0577072 6.10147 0.0514594 6.62888C0.0441649 6.86988 0.0433946 7.11168 0.0395508 7.35272V25.5216C0.0433946 25.7657 0.0441649 26.0021 0.0514594 26.2463C0.0577091 26.7736 0.104803 27.2997 0.192319 27.8199C0.278773 28.3409 0.44445 28.8457 0.683598 29.3167C0.921751 29.7869 1.23452 30.2155 1.60973 30.5856C1.98151 30.9606 2.4111 31.2734 2.88207 31.5122C3.35248 31.7514 3.85616 31.9185 4.37625 32.008C4.8971 32.0936 5.42362 32.14 5.95141 32.147C6.19437 32.1523 6.4331 32.1554 6.67375 32.1554C6.96122 32.1569 7.24603 32.1569 7.53426 32.1569H86.6106C86.8932 32.1569 87.1802 32.1569 87.4627 32.1554C87.7022 32.1554 87.9479 32.1523 88.1874 32.147C88.7142 32.1404 89.2397 32.0939 89.7595 32.008C90.2812 31.9179 90.7867 31.7508 91.2594 31.5122C91.73 31.2733 92.1591 30.9605 92.5306 30.5856C92.9049 30.214 93.2183 29.7858 93.4594 29.3167C93.6968 28.8454 93.8608 28.3406 93.946 27.8199C94.0337 27.2997 94.0825 26.7737 94.0919 26.2463C94.095 26.0021 94.095 25.7657 94.095 25.5216C94.1011 25.236 94.1011 24.952 94.1011 24.6618V8.21091C94.1011 7.92306 94.1011 7.6375 94.095 7.35272C94.095 7.11168 94.095 6.86988 94.0919 6.62885C94.0825 6.10139 94.0337 5.57538 93.946 5.05518C93.8606 4.53469 93.6965 4.03022 93.4594 3.55908C92.9742 2.61353 92.2048 1.84385 91.2594 1.35831C90.7867 1.12033 90.2812 0.954215 89.7595 0.865455C89.2398 0.778819 88.7142 0.732367 88.1874 0.726513C87.9479 0.722677 87.7022 0.718071 87.4627 0.716538C87.1802 0.714966 86.8932 0.714966 86.6106 0.714966V0.715068Z" fill="black"/>
    <path d="M6.6769 31.4672C6.43741 31.4672 6.2037 31.4641 5.96609 31.4588C5.47385 31.4524 4.98277 31.4095 4.49686 31.3306C4.04377 31.2525 3.60486 31.1074 3.19458 30.8999C2.78807 30.6941 2.4173 30.4243 2.09647 30.1008C1.771 29.7811 1.50004 29.4103 1.29431 29.0031C1.08631 28.5932 0.942363 28.1539 0.867482 27.7004C0.786617 27.2132 0.742866 26.7205 0.736605 26.2266C0.731622 26.0608 0.725098 25.5089 0.725098 25.5089V7.35074C0.725098 7.35074 0.732046 6.80725 0.736645 6.64759C0.742639 6.15448 0.786136 5.66255 0.866759 5.17605C0.941778 4.72134 1.08584 4.28076 1.29394 3.86956C1.49892 3.46264 1.76838 3.09156 2.09189 2.77071C2.41504 2.44681 2.78699 2.17561 3.1942 1.967C3.60353 1.76018 4.04162 1.61605 4.49378 1.53944C4.98129 1.4597 5.47408 1.4166 5.96802 1.41048L6.67729 1.40088H87.4582L88.1759 1.41086C88.6654 1.41668 89.1537 1.4594 89.6367 1.53867C90.0935 1.61624 90.5361 1.76137 90.9501 1.9693C91.7659 2.38972 92.4297 3.05485 92.8484 3.87148C93.0532 4.27984 93.1951 4.71682 93.2691 5.16761C93.3507 5.6581 93.3964 6.1539 93.4058 6.65104C93.408 6.87365 93.408 7.11277 93.408 7.35074C93.4142 7.6455 93.4142 7.92607 93.4142 8.20893V24.6599C93.4142 24.9454 93.4142 25.2241 93.408 25.505C93.408 25.7606 93.408 25.9948 93.405 26.2358C93.3958 26.7241 93.3509 27.211 93.2706 27.6927C93.1973 28.1495 93.0541 28.5922 92.8462 29.0054C92.639 29.4082 92.3696 29.7758 92.0479 30.0947C91.7267 30.4199 91.3553 30.6913 90.9479 30.8984C90.535 31.1075 90.093 31.2532 89.6367 31.3306C89.1509 31.4099 88.6597 31.4528 88.1675 31.4588C87.9372 31.4641 87.6961 31.4672 87.4621 31.4672L86.61 31.4687L6.6769 31.4672Z" fill="black"/>
    <path d="M19.5093 16.6687C19.5178 16.0126 19.692 15.3693 20.0159 14.7987C20.3398 14.228 20.8027 13.7486 21.3617 13.405C21.0066 12.8978 20.5381 12.4805 19.9936 12.1861C19.449 11.8917 18.8432 11.7283 18.2244 11.7089C16.9045 11.5704 15.6248 12.4988 14.9522 12.4988C14.2666 12.4988 13.2309 11.7227 12.1158 11.7456C11.3944 11.7689 10.6914 11.9787 10.0753 12.3545C9.45909 12.7302 8.95077 13.2592 8.59983 13.8899C7.07961 16.5219 8.21356 20.39 9.6698 22.5176C10.3984 23.5594 11.2499 24.7231 12.3641 24.6818C13.4544 24.6366 13.8616 23.9866 15.1777 23.9866C16.4815 23.9866 16.8636 24.6818 18.0003 24.6556C19.1703 24.6366 19.9074 23.6091 20.6104 22.5575C21.1339 21.8152 21.5367 20.9948 21.804 20.1266C21.1243 19.8391 20.5442 19.3579 20.1362 18.743C19.7281 18.1281 19.5101 17.4067 19.5093 16.6687Z" fill="white"/>
    <path d="M17.362 10.3093C17.9999 9.54357 18.3142 8.5593 18.2381 7.56555C17.2635 7.66791 16.3633 8.13369 15.7168 8.87008C15.4007 9.22983 15.1586 9.64835 15.0043 10.1017C14.85 10.5551 14.7867 11.0344 14.8178 11.5123C15.3052 11.5173 15.7875 11.4117 16.2282 11.2033C16.6689 10.9949 17.0565 10.6893 17.362 10.3093Z" fill="white"/>
    <path d="M33.2912 22.0465H29.5705L28.677 24.6848H27.1011L30.6252 14.9237H32.2626L35.7867 24.6848H34.1839L33.2912 22.0465ZM29.9559 20.8291H32.9051L31.4512 16.5472H31.4105L29.9559 20.8291Z" fill="white"/>
    <path d="M43.3975 21.1259C43.3975 23.3375 42.2139 24.7583 40.4276 24.7583C39.9751 24.782 39.5251 24.6778 39.1291 24.4576C38.7331 24.2374 38.4071 23.9101 38.1884 23.5132H38.1546V27.0382H36.6938V17.5672H38.1078V18.7509H38.1347C38.3634 18.3559 38.6949 18.0304 39.0939 17.8088C39.4929 17.5873 39.9446 17.4781 40.4007 17.4928C42.2069 17.4928 43.3975 18.9206 43.3975 21.1259ZM41.8961 21.1259C41.8961 19.6851 41.1515 18.7379 40.0154 18.7379C38.8993 18.7379 38.1485 19.7051 38.1485 21.1259C38.1485 22.5599 38.8993 23.5202 40.0154 23.5202C41.1515 23.5202 41.8961 22.5798 41.8961 21.1259Z" fill="white"/>
    <path d="M51.23 21.1259C51.23 23.3375 50.0464 24.7583 48.2601 24.7583C47.8076 24.782 47.3576 24.6778 46.9616 24.4576C46.5656 24.2374 46.2396 23.9101 46.021 23.5132H45.9872V27.0382H44.5264V17.5672H45.9403V18.7509H45.9672C46.1959 18.3559 46.5274 18.0304 46.9264 17.8088C47.3254 17.5873 47.7771 17.4781 48.2332 17.4928C50.0395 17.4928 51.23 18.9205 51.23 21.1259ZM49.7286 21.1259C49.7286 19.6851 48.984 18.7379 47.8479 18.7379C46.7318 18.7379 45.981 19.7051 45.981 21.1259C45.981 22.5599 46.7318 23.5202 47.8479 23.5202C48.984 23.5202 49.7286 22.5798 49.7286 21.1259H49.7286Z" fill="white"/>
    <path d="M56.408 21.963C56.5162 22.931 57.4565 23.5665 58.7415 23.5665C59.9728 23.5665 60.8586 22.9309 60.8586 22.0581C60.8586 21.3005 60.3244 20.8468 59.0593 20.5359L57.7943 20.2312C56.0019 19.7982 55.1698 18.96 55.1698 17.5998C55.1698 15.9156 56.6375 14.7588 58.7216 14.7588C60.7842 14.7588 62.1981 15.9156 62.2457 17.5998H60.7711C60.6828 16.6257 59.8776 16.0377 58.7008 16.0377C57.5241 16.0377 56.7188 16.6326 56.7188 17.4984C56.7188 18.1885 57.2331 18.5946 58.4913 18.9055L59.5667 19.1695C61.5694 19.6432 62.4015 20.4476 62.4015 21.8754C62.4015 23.7016 60.9469 24.8453 58.6333 24.8453C56.4686 24.8453 55.007 23.7284 54.9126 21.9629L56.408 21.963Z" fill="white"/>
    <path d="M65.5547 15.88V17.5642H66.908V18.721H65.5547V22.6443C65.5547 23.2538 65.8257 23.5378 66.4206 23.5378C66.5812 23.535 66.7416 23.5237 66.9011 23.504V24.6539C66.6336 24.7039 66.3618 24.7265 66.0897 24.7215C64.6489 24.7215 64.087 24.1803 64.087 22.8001V18.721H63.0522V17.5642H64.087V15.88H65.5547Z" fill="white"/>
    <path d="M67.6909 21.1261C67.6909 18.8869 69.0097 17.4799 71.0662 17.4799C73.1295 17.4799 74.4422 18.8869 74.4422 21.1261C74.4422 23.3714 73.1364 24.7723 71.0662 24.7723C68.9966 24.7723 67.6909 23.3714 67.6909 21.1261ZM72.9537 21.1261C72.9537 19.5901 72.2498 18.6835 71.0662 18.6835C69.8825 18.6835 69.1793 19.597 69.1793 21.1261C69.1793 22.6682 69.8825 23.5679 71.0662 23.5679C72.2498 23.5679 72.9537 22.6682 72.9537 21.1261H72.9537Z" fill="white"/>
    <path d="M75.6465 17.5672H77.0397V18.7785H77.0735C77.1678 18.4001 77.3894 18.0658 77.7012 17.8317C78.0129 17.5975 78.3957 17.4778 78.7853 17.4927C78.9537 17.4921 79.1215 17.5104 79.2858 17.5472V18.9136C79.0733 18.8486 78.8516 18.8188 78.6295 18.8253C78.4173 18.8167 78.2057 18.8541 78.0093 18.935C77.8129 19.0158 77.6363 19.1383 77.4917 19.2938C77.3471 19.4494 77.2379 19.6344 77.1715 19.8361C77.1052 20.0379 77.0832 20.2516 77.1073 20.4626V24.6838H75.6465L75.6465 17.5672Z" fill="white"/>
    <path d="M86.0212 22.5938C85.8247 23.8857 84.5666 24.7723 82.9568 24.7723C80.8866 24.7723 79.6016 23.3852 79.6016 21.1598C79.6016 18.9276 80.8935 17.4799 82.8954 17.4799C84.8644 17.4799 86.1026 18.8324 86.1026 20.9902V21.4907H81.0762V21.579C81.053 21.8409 81.0858 22.1047 81.1724 22.353C81.259 22.6013 81.3974 22.8283 81.5785 23.0189C81.7596 23.2096 81.9791 23.3595 82.2226 23.4588C82.4661 23.5581 82.7279 23.6044 82.9906 23.5947C83.3358 23.6271 83.6823 23.5471 83.9784 23.3668C84.2745 23.1864 84.5045 22.9153 84.6341 22.5938L86.0212 22.5938ZM81.0831 20.4698H84.641C84.6541 20.2343 84.6184 19.9986 84.5361 19.7775C84.4539 19.5565 84.3268 19.3549 84.1629 19.1853C83.999 19.0156 83.8018 18.8818 83.5837 18.792C83.3656 18.7022 83.1312 18.6585 82.8954 18.6635C82.6576 18.6621 82.4217 18.7078 82.2016 18.798C81.9815 18.8882 81.7814 19.0211 81.6129 19.189C81.4444 19.357 81.3108 19.5566 81.2199 19.7764C81.129 19.9962 81.0825 20.2319 81.0831 20.4698V20.4698Z" fill="white"/>
    <path d="M29.7737 7.58406C30.08 7.56208 30.3873 7.60835 30.6735 7.71952C30.9597 7.83069 31.2177 8.004 31.4288 8.22694C31.6399 8.44989 31.7989 8.7169 31.8944 9.00874C31.9898 9.30058 32.0193 9.60996 31.9807 9.91456C31.9807 11.413 31.1708 12.2743 29.7737 12.2743H28.0796V7.58406H29.7737ZM28.8081 11.611H29.6924C29.9112 11.6241 30.1302 11.5882 30.3334 11.5059C30.5367 11.4237 30.719 11.2972 30.8671 11.1356C31.0153 10.974 31.1256 10.7814 31.1899 10.5719C31.2543 10.3623 31.2711 10.141 31.2391 9.92412C31.2688 9.70809 31.2503 9.48817 31.1849 9.28014C31.1196 9.0721 31.009 8.88109 30.8612 8.72079C30.7134 8.56049 30.5319 8.43487 30.3299 8.35294C30.1278 8.271 29.9101 8.23478 29.6924 8.24686H28.8081V11.611Z" fill="white"/>
    <path d="M32.8043 10.5037C32.782 10.2711 32.8086 10.0364 32.8824 9.81473C32.9562 9.59301 33.0755 9.38915 33.2326 9.21623C33.3898 9.04332 33.5814 8.90516 33.795 8.81062C34.0087 8.71607 34.2398 8.66724 34.4735 8.66724C34.7071 8.66724 34.9382 8.71607 35.1519 8.81062C35.3656 8.90516 35.5572 9.04332 35.7143 9.21623C35.8715 9.38915 35.9908 9.59301 36.0646 9.81473C36.1383 10.0364 36.1649 10.2711 36.1427 10.5037C36.1654 10.7366 36.1391 10.9716 36.0655 11.1937C35.9919 11.4158 35.8727 11.62 35.7155 11.7932C35.5583 11.9665 35.3666 12.1049 35.1527 12.1997C34.9388 12.2944 34.7074 12.3434 34.4735 12.3434C34.2395 12.3434 34.0082 12.2944 33.7943 12.1997C33.5804 12.1049 33.3887 11.9665 33.2315 11.7932C33.0743 11.62 32.955 11.4158 32.8815 11.1937C32.8079 10.9716 32.7816 10.7366 32.8043 10.5037ZM35.4242 10.5037C35.4242 9.7365 35.0795 9.28783 34.4746 9.28783C33.8674 9.28783 33.5259 9.7365 33.5259 10.5037C33.5259 11.2771 33.8675 11.7223 34.4746 11.7223C35.0795 11.7223 35.4242 11.274 35.4242 10.5037H35.4242Z" fill="white"/>
    <path d="M40.5803 12.2739H39.8556L39.1241 9.66704H39.0688L38.3404 12.2739H37.6226L36.647 8.73438H37.3555L37.9895 11.4352H38.0418L38.7695 8.73438H39.4396L40.1673 11.4352H40.2226L40.8536 8.73438H41.5521L40.5803 12.2739Z" fill="white"/>
    <path d="M42.3721 8.73331H43.0445V9.29559H43.0967C43.1853 9.09364 43.3346 8.92435 43.5239 8.81131C43.7133 8.69827 43.9332 8.64712 44.153 8.66498C44.3252 8.65203 44.4981 8.678 44.6589 8.74096C44.8198 8.80392 44.9644 8.90226 45.082 9.02869C45.1997 9.15512 45.2874 9.3064 45.3386 9.47133C45.3899 9.63626 45.4034 9.81061 45.3781 9.98145V12.2728H44.6796V10.1569C44.6796 9.58806 44.4324 9.30519 43.9158 9.30519C43.7988 9.29974 43.6821 9.31964 43.5736 9.36353C43.4651 9.40741 43.3673 9.47424 43.287 9.55944C43.2068 9.64464 43.1459 9.74618 43.1085 9.85712C43.0712 9.96805 43.0582 10.0858 43.0706 10.2022V12.2728H42.3721L42.3721 8.73331Z" fill="white"/>
    <path d="M46.4917 7.35278H47.1902V12.274H46.4917V7.35278Z" fill="white"/>
    <path d="M48.1617 10.5038C48.1394 10.2712 48.1661 10.0365 48.2399 9.81475C48.3136 9.59303 48.4329 9.38916 48.5901 9.21624C48.7473 9.04332 48.9389 8.90516 49.1526 8.81062C49.3663 8.71607 49.5974 8.66724 49.8311 8.66724C50.0648 8.66724 50.2959 8.71607 50.5096 8.81062C50.7233 8.90516 50.9148 9.04332 51.072 9.21624C51.2292 9.38916 51.3485 9.59303 51.4223 9.81475C51.4961 10.0365 51.5227 10.2712 51.5005 10.5038C51.5231 10.7367 51.4968 10.9717 51.4232 11.1938C51.3496 11.4158 51.2304 11.6201 51.0732 11.7933C50.9159 11.9666 50.7242 12.105 50.5103 12.1997C50.2964 12.2945 50.065 12.3434 49.8311 12.3434C49.5971 12.3434 49.3658 12.2945 49.1518 12.1997C48.9379 12.105 48.7462 11.9666 48.589 11.7933C48.4318 11.6201 48.3125 11.4158 48.2389 11.1938C48.1654 10.9717 48.139 10.7367 48.1617 10.5038ZM50.7816 10.5038C50.7816 9.73657 50.4369 9.28789 49.832 9.28789C49.2248 9.28789 48.8833 9.73657 48.8833 10.5038C48.8833 11.2772 49.2249 11.7224 49.832 11.7224C50.4369 11.7224 50.7816 11.2741 50.7816 10.5038H50.7816Z" fill="white"/>
    <path d="M52.2349 11.2741C52.2349 10.637 52.7093 10.2696 53.5513 10.2174L54.5101 10.1622V9.85667C54.5101 9.48283 54.2629 9.27174 53.7855 9.27174C53.3955 9.27174 53.1253 9.4149 53.0478 9.66515H52.3715C52.4429 9.05719 53.0148 8.66724 53.8177 8.66724C54.7051 8.66724 55.2056 9.109 55.2056 9.85667V12.2751H54.5331V11.7776H54.4779C54.3657 11.9561 54.2082 12.1015 54.0214 12.1992C53.8346 12.2968 53.6252 12.3431 53.4147 12.3334C53.2661 12.3488 53.1159 12.333 52.9738 12.2868C52.8318 12.2407 52.7009 12.1653 52.5898 12.0655C52.4786 11.9657 52.3896 11.8437 52.3285 11.7074C52.2673 11.5711 52.2354 11.4235 52.2349 11.2741ZM54.5101 10.9716V10.6757L53.6458 10.731C53.1583 10.7636 52.9372 10.9294 52.9372 11.2415C52.9372 11.56 53.2136 11.7454 53.5936 11.7454C53.7049 11.7567 53.8174 11.7454 53.9243 11.7123C54.0312 11.6793 54.1304 11.625 54.2159 11.5528C54.3014 11.4806 54.3715 11.392 54.422 11.2921C54.4726 11.1923 54.5025 11.0833 54.5101 10.9716Z" fill="white"/>
    <path d="M56.1235 10.5027C56.1235 9.38431 56.6985 8.67579 57.5928 8.67579C57.814 8.6656 58.0335 8.71858 58.2257 8.82855C58.4179 8.93851 58.5749 9.10091 58.6782 9.29677H58.7304V7.35278H59.4289V12.274H58.7596V11.7148H58.7043C58.593 11.9093 58.4306 12.0697 58.2347 12.1786C58.0387 12.2874 57.8168 12.3406 57.5928 12.3324C56.6923 12.3324 56.1235 11.6239 56.1235 10.5027ZM56.8451 10.5027C56.8451 11.2535 57.199 11.7052 57.7908 11.7052C58.3796 11.7052 58.7435 11.247 58.7435 10.5058C58.7435 9.76812 58.3758 9.30333 57.7908 9.30333C57.2028 9.30333 56.8451 9.75814 56.8451 10.5027H56.8451Z" fill="white"/>
    <path d="M62.3199 10.5037C62.2977 10.2711 62.3243 10.0364 62.398 9.81473C62.4718 9.59301 62.5911 9.38915 62.7482 9.21623C62.9054 9.04332 63.097 8.90516 63.3107 8.81062C63.5243 8.71607 63.7554 8.66724 63.9891 8.66724C64.2228 8.66724 64.4539 8.71607 64.6675 8.81062C64.8812 8.90516 65.0728 9.04332 65.23 9.21623C65.3871 9.38915 65.5064 9.59301 65.5802 9.81473C65.6539 10.0364 65.6806 10.2711 65.6583 10.5037C65.681 10.7366 65.6547 10.9716 65.5811 11.1937C65.5075 11.4158 65.3883 11.62 65.2311 11.7932C65.0739 11.9665 64.8822 12.1049 64.6683 12.1997C64.4544 12.2944 64.2231 12.3434 63.9891 12.3434C63.7552 12.3434 63.5238 12.2944 63.3099 12.1997C63.096 12.1049 62.9043 11.9665 62.7471 11.7932C62.5899 11.62 62.4707 11.4158 62.3971 11.1937C62.3235 10.9716 62.2972 10.7366 62.3199 10.5037ZM64.9398 10.5037C64.9398 9.7365 64.5951 9.28783 63.9903 9.28783C63.3831 9.28783 63.0415 9.7365 63.0415 10.5037C63.0415 11.2771 63.3831 11.7223 63.9903 11.7223C64.5951 11.7223 64.9398 11.274 64.9398 10.5037Z" fill="white"/>
    <path d="M66.5952 8.73331H67.2677V9.29559H67.3199C67.4084 9.09364 67.5578 8.92435 67.7471 8.81131C67.9364 8.69827 68.1563 8.64712 68.3761 8.66498C68.5483 8.65203 68.7213 8.678 68.8821 8.74096C69.0429 8.80392 69.1875 8.90226 69.3052 9.02869C69.4228 9.15512 69.5105 9.3064 69.5618 9.47133C69.613 9.63626 69.6265 9.81061 69.6012 9.98145V12.2728H68.9027V10.1569C68.9027 9.58806 68.6555 9.30519 68.1389 9.30519C68.022 9.29974 67.9053 9.31964 67.7967 9.36353C67.6882 9.40741 67.5905 9.47424 67.5102 9.55944C67.4299 9.64464 67.369 9.74618 67.3317 9.85712C67.2943 9.96805 67.2814 10.0858 67.2938 10.2022V12.2728H66.5952V8.73331Z" fill="white"/>
    <path d="M73.5478 7.85291V8.75026H74.3147V9.33864H73.5478V11.1587C73.5478 11.5294 73.7006 11.6918 74.0483 11.6918C74.1373 11.6915 74.2263 11.6861 74.3147 11.6757V12.2575C74.1892 12.28 74.0621 12.2919 73.9347 12.2932C73.1579 12.2932 72.8485 12.0199 72.8485 11.3375V9.33861H72.2866V8.75022H72.8485V7.85291H73.5478Z" fill="white"/>
    <path d="M75.2695 7.35278H75.9619V9.30332H76.0172C76.1101 9.09948 76.2635 8.92923 76.4566 8.81577C76.6498 8.7023 76.8732 8.65114 77.0964 8.66926C77.2678 8.65994 77.439 8.68854 77.598 8.75303C77.757 8.81752 77.8999 8.91631 78.0163 9.04234C78.1327 9.16837 78.2199 9.31855 78.2716 9.48215C78.3233 9.64575 78.3383 9.81875 78.3154 9.98881V12.274H77.6162V10.1611C77.6162 9.59578 77.3529 9.30945 76.8593 9.30945C76.7393 9.2996 76.6185 9.31611 76.5055 9.35781C76.3925 9.39951 76.2899 9.46541 76.205 9.55088C76.1201 9.63635 76.055 9.73934 76.014 9.85264C75.9731 9.96594 75.9574 10.0868 75.9681 10.2068V12.274H75.2696L75.2695 7.35278Z" fill="white"/>
    <path d="M82.3879 11.3194C82.293 11.6429 82.0874 11.9227 81.807 12.1099C81.5267 12.2971 81.1894 12.3798 80.8542 12.3434C80.621 12.3496 80.3893 12.3049 80.1751 12.2126C79.9609 12.1202 79.7694 11.9823 79.6138 11.8085C79.4582 11.6346 79.3424 11.429 79.2742 11.2059C79.2061 10.9828 79.1873 10.7476 79.2192 10.5165C79.1881 10.2847 79.2073 10.0489 79.2752 9.82518C79.3432 9.60142 79.4585 9.39487 79.6132 9.21952C79.768 9.04418 79.9586 8.90413 80.1722 8.80885C80.3857 8.71358 80.6173 8.6653 80.8512 8.6673C81.836 8.6673 82.4302 9.34015 82.4302 10.4516V10.6954H79.9308V10.7345C79.9198 10.8644 79.9362 10.9951 79.9787 11.1184C80.0213 11.2416 80.0891 11.3545 80.1778 11.45C80.2666 11.5455 80.3743 11.6213 80.4941 11.6728C80.6139 11.7242 80.7431 11.75 80.8734 11.7485C81.0405 11.7686 81.2098 11.7385 81.3597 11.6621C81.5097 11.5857 81.6335 11.4664 81.7155 11.3194L82.3879 11.3194ZM79.9308 10.1787H81.7186C81.7274 10.06 81.7112 9.94063 81.6712 9.82845C81.6311 9.71626 81.568 9.6137 81.486 9.52735C81.4039 9.44099 81.3047 9.37276 81.1947 9.32703C81.0847 9.2813 80.9664 9.25909 80.8473 9.26182C80.7265 9.2603 80.6066 9.28299 80.4947 9.32853C80.3828 9.37408 80.2811 9.44157 80.1957 9.52703C80.1103 9.61248 80.0428 9.71417 79.9973 9.8261C79.9518 9.93803 79.9292 10.0579 79.9308 10.1787H79.9308Z" fill="white"/>
    </g>
    <defs>
    <clipPath id="clip0_17_195">
    <rect width="94.0616" height="31.4419" fill="white" transform="translate(0.0395508 0.716797)"/>
    </clipPath>
    </defs>
    </svg>
    