<svg width="107" height="33" viewBox="0 0 107 33" fill="none" xmlns="http://www.w3.org/2000/svg">
    <g clip-path="url(#clip0_17_230)">
    <path fill-rule="evenodd" clip-rule="evenodd" d="M102.916 32.2199H4.28048C2.10513 32.2199 0.333496 30.441 0.333496 28.2744V4.60118C0.333496 2.4267 2.10513 0.65564 4.28048 0.65564H102.916C105.089 0.65564 106.863 2.4267 106.863 4.60118V28.2744C106.863 30.441 105.089 32.2199 102.916 32.2199Z" fill="black"/>
    <path fill-rule="evenodd" clip-rule="evenodd" d="M102.916 1.28732C104.741 1.28732 106.234 2.77698 106.234 4.60118V28.2744C106.234 30.0986 104.75 31.5882 102.916 31.5882H4.28048C2.45593 31.5882 0.962584 30.0986 0.962584 28.2744V4.60118C0.962584 2.77698 2.44613 1.28732 4.28048 1.28732H102.916ZM102.916 0.65564H4.28048C2.10513 0.65564 0.333496 2.43457 0.333496 4.60118V28.2744C0.333496 30.4489 2.10513 32.2199 4.28048 32.2199H102.916C105.089 32.2199 106.863 30.4489 106.863 28.2744V4.60118C106.863 2.43457 105.089 0.65564 102.916 0.65564Z" fill="black"/>
    <path d="M56.4538 11.0968C55.7424 11.0968 55.1427 10.8469 54.6685 10.3549C54.1981 9.8767 53.9355 9.21748 53.9473 8.54447C53.9473 7.82621 54.1903 7.21814 54.6685 6.73602C55.1408 6.24406 55.7405 5.99414 56.4519 5.99414C57.1554 5.99414 57.7551 6.24406 58.2372 6.73602C58.7154 7.23389 58.9584 7.84195 58.9584 8.54447C58.9506 9.2647 58.7075 9.87277 58.2372 10.3529C57.7649 10.8488 57.1652 11.0968 56.4538 11.0968ZM35.2864 11.0968C34.5907 11.0968 33.9871 10.8508 33.4932 10.3647C33.0033 9.88064 32.7544 9.26864 32.7544 8.54644C32.7544 7.82424 33.0033 7.21224 33.4932 6.72815C33.9773 6.24209 34.5809 5.99611 35.2864 5.99611C35.6313 5.99611 35.9664 6.06498 36.2878 6.2047C36.6034 6.34048 36.8601 6.52546 37.0502 6.75176L37.0972 6.80883L36.5661 7.33228L36.5113 7.26734C36.2114 6.90919 35.8097 6.73405 35.2786 6.73405C34.8043 6.73405 34.3908 6.90329 34.0498 7.23782C33.7068 7.57432 33.5324 8.01512 33.5324 8.54841C33.5324 9.08169 33.7068 9.52249 34.0498 9.85899C34.3908 10.1935 34.8043 10.3628 35.2786 10.3628C35.7842 10.3628 36.2095 10.1935 36.5407 9.85899C36.7366 9.66221 36.8581 9.38671 36.9013 9.0384H35.1982V8.30243H37.6322L37.642 8.36933C37.6597 8.49331 37.6773 8.62122 37.6773 8.73929C37.6773 9.4182 37.4735 9.96723 37.0698 10.3726C36.6112 10.8528 36.0115 11.0968 35.2864 11.0968ZM63.4306 10.9925H62.68L60.3812 7.29882L60.4008 7.96396V10.9905H59.6502V6.1004H60.5066L60.5301 6.13779L62.6917 9.61695L62.6721 8.95378V6.1004H63.4306V10.9925ZM50.8136 10.9925H50.0532V6.83638H48.7343V6.1004H52.1306V6.83638H50.8117V10.9925H50.8136ZM48.115 10.9925H47.3566V6.1004H48.115V10.9925ZM43.8525 10.9925H43.0941V6.83638H41.7752V6.1004H45.1715V6.83638H43.8525V10.9925ZM41.295 10.9846H38.3868V6.1004H41.295V6.83638H39.1471V8.17845H41.0853V8.90656H39.1471V10.2486H41.295V10.9846ZM55.225 9.84916C55.5641 10.1896 55.9756 10.3608 56.4538 10.3608C56.9457 10.3608 57.3475 10.1935 57.6826 9.84916C58.0158 9.51462 58.1843 9.07579 58.1843 8.54644C58.1843 8.01709 58.0157 7.57629 57.6845 7.24372C57.3455 6.90329 56.932 6.73208 56.4558 6.73208C55.9639 6.73208 55.5621 6.89935 55.229 7.24372C54.8958 7.57826 54.7273 8.01709 54.7273 8.54644C54.7273 9.07579 54.8938 9.51659 55.225 9.84916Z" fill="white"/>
    <path fill-rule="evenodd" clip-rule="evenodd" d="M53.8764 17.8231C52.0244 17.8231 50.5232 19.234 50.5232 21.1802C50.5232 23.1087 52.0342 24.5373 53.8764 24.5373C55.7284 24.5373 57.2296 23.1166 57.2296 21.1802C57.2296 19.234 55.7284 17.8231 53.8764 17.8231ZM53.8764 23.2071C52.8632 23.2071 51.9911 22.3648 51.9911 21.1723C51.9911 19.9621 52.8652 19.1376 53.8764 19.1376C54.8896 19.1376 55.7617 19.9621 55.7617 21.1723C55.7637 22.3727 54.8896 23.2071 53.8764 23.2071ZM46.5606 17.8231C44.7086 17.8231 43.2074 19.234 43.2074 21.1802C43.2074 23.1087 44.7184 24.5373 46.5606 24.5373C48.4126 24.5373 49.9137 23.1166 49.9137 21.1802C49.9137 19.234 48.4106 17.8231 46.5606 17.8231ZM46.5606 23.2071C45.5474 23.2071 44.6753 22.3648 44.6753 21.1723C44.6753 19.9621 45.5493 19.1376 46.5606 19.1376C47.5738 19.1376 48.4459 19.9621 48.4459 21.1723C48.4459 22.3727 47.5738 23.2071 46.5606 23.2071ZM37.8552 18.8483V20.2691H41.2515C41.1477 21.0661 40.885 21.6545 40.4833 22.0579C39.9855 22.5577 39.2173 23.1008 37.8631 23.1008C35.7759 23.1008 34.1434 21.4085 34.1434 19.3127C34.1434 17.217 35.7759 15.5246 37.8631 15.5246C38.9899 15.5246 39.8111 15.9713 40.4206 16.542L41.424 15.5344C40.5774 14.7198 39.4505 14.0959 37.8709 14.0959C35.0077 14.0959 32.605 16.4377 32.605 19.3048C32.605 22.1799 35.0057 24.5137 37.8709 24.5137C39.4172 24.5137 40.5774 24.006 41.4945 23.0497C42.4293 22.111 42.7253 20.7866 42.7253 19.7181C42.7253 19.3855 42.6998 19.0864 42.6469 18.8326H37.8533C37.8552 18.8306 37.8552 18.8483 37.8552 18.8483ZM73.4624 19.9542C73.1822 19.2005 72.3356 17.8152 70.5992 17.8152C68.8785 17.8152 67.4479 19.175 67.4479 21.1723C67.4479 23.0575 68.8628 24.5295 70.7658 24.5295C72.2944 24.5295 73.1841 23.5908 73.5506 23.0398L72.4159 22.2763C72.0396 22.8371 71.5164 23.2051 70.7736 23.2051C70.023 23.2051 69.4978 22.8627 69.149 22.1877L73.6192 20.3281C73.6192 20.3301 73.4624 19.9542 73.4624 19.9542ZM68.904 21.0759C68.8687 19.7791 69.9074 19.1199 70.6502 19.1199C71.2361 19.1199 71.7241 19.4091 71.8907 19.8303L68.904 21.0759ZM65.2725 24.3288H66.7404V14.4659H65.2725V24.3288ZM62.862 18.5689H62.8091C62.4779 18.1733 61.8488 17.8152 61.0453 17.8152C59.3775 17.8152 57.841 19.2891 57.841 21.1822C57.841 23.0674 59.3697 24.5236 61.0453 24.5236C61.839 24.5236 62.4779 24.1635 62.8091 23.76H62.862V24.2422C62.862 25.5232 62.18 26.214 61.0806 26.214C60.181 26.214 59.6225 25.5646 59.3951 25.0214L58.1193 25.5567C58.4858 26.4422 59.4637 27.5383 61.0786 27.5383C62.7993 27.5383 64.2574 26.5209 64.2574 24.0395V18.0159H62.8698V18.5689C62.8718 18.5689 62.862 18.5689 62.862 18.5689ZM61.1766 23.2071C60.1634 23.2071 59.3168 22.357 59.3168 21.1822C59.3168 19.9975 60.1634 19.1395 61.1766 19.1395C62.18 19.1395 62.958 20.0074 62.958 21.1822C62.9678 22.357 62.182 23.2071 61.1766 23.2071ZM80.3354 14.4659H76.8254V24.3288H78.2933V20.5938H80.3373C81.962 20.5938 83.5592 19.4111 83.5592 17.5338C83.5592 15.6565 81.9679 14.4659 80.3354 14.4659ZM80.3785 19.2163H78.2913V15.8316H80.3785C81.4779 15.8316 82.0992 16.7427 82.0992 17.5239C82.0992 18.2973 81.4701 19.2163 80.3785 19.2163ZM89.4425 17.8053C88.3763 17.8053 87.2769 18.2796 86.8222 19.3127L88.1235 19.8558C88.4038 19.3127 88.9172 19.1277 89.4601 19.1277C90.2205 19.1277 90.9887 19.5843 91.0064 20.399V20.5033C90.7438 20.3537 90.1676 20.1254 89.4777 20.1254C88.0726 20.1254 86.6478 20.8968 86.6478 22.3432C86.6478 23.6676 87.8002 24.5177 89.0838 24.5177C90.0696 24.5177 90.6124 24.071 90.9515 23.5534H91.0044V24.317H92.4194V20.5387C92.4194 18.7794 91.1181 17.8053 89.4425 17.8053ZM89.2582 23.2071C88.7781 23.2071 88.1059 22.9709 88.1059 22.3648C88.1059 21.6013 88.9447 21.312 89.66 21.312C90.3067 21.312 90.6125 21.4518 90.9966 21.6446C90.8907 22.5301 90.146 23.1992 89.2582 23.2071ZM97.5814 18.0159L95.896 22.294H95.8431L94.0969 18.0159H92.5173L95.1376 23.9962L93.6442 27.3199H95.1729L99.2041 18.0159H97.5814ZM84.3686 24.3288H85.8365V14.4659H84.3686V24.3288Z" fill="white"/>
    <path fill-rule="evenodd" clip-rule="evenodd" d="M8.53393 6.59903C8.3066 6.84501 8.17529 7.22087 8.17529 7.71283V25.1617C8.17529 25.6537 8.3066 26.0296 8.54177 26.2657L8.60252 26.3188L18.3387 16.5426V16.3241L8.59468 6.5459L8.53393 6.59903Z" fill="url(#paint0_linear_17_230)"/>
    <path fill-rule="evenodd" clip-rule="evenodd" d="M21.5774 19.8128L18.3301 16.5521V16.3238L21.5774 13.0631L21.648 13.1064L25.4892 15.2986C26.5886 15.9204 26.5886 16.9476 25.4892 17.5774L21.648 19.7695L21.5774 19.8128Z" fill="url(#paint1_linear_17_230)"/>
    <path fill-rule="evenodd" clip-rule="evenodd" d="M21.6485 19.7692L18.3306 16.4376L8.53369 26.2749C8.89233 26.6606 9.49398 26.7039 10.1662 26.328L21.6485 19.7692Z" fill="url(#paint2_linear_17_230)"/>
    <path fill-rule="evenodd" clip-rule="evenodd" d="M21.6485 13.1063L10.1662 6.55729C9.49398 6.17159 8.89037 6.22472 8.53369 6.61042L18.3306 16.4379L21.6485 13.1063Z" fill="url(#paint3_linear_17_230)"/>
    <path opacity="0.2" fill-rule="evenodd" clip-rule="evenodd" d="M21.578 19.699L10.174 26.2047C9.53708 26.5726 8.96874 26.5471 8.60226 26.2125L8.5415 26.2735L8.60226 26.3267C8.96874 26.6592 9.53708 26.6868 10.174 26.3188L21.6564 19.7698L21.578 19.699Z" fill="black"/>
    <path opacity="0.12" fill-rule="evenodd" clip-rule="evenodd" d="M25.4899 17.4629L21.5684 19.6983L21.6389 19.7692L25.4801 17.577C26.0308 17.2622 26.3012 16.8489 26.3012 16.4376C26.2679 16.8154 25.9876 17.1736 25.4899 17.4629Z" fill="black"/>
    <path opacity="0.25" fill-rule="evenodd" clip-rule="evenodd" d="M10.1664 6.67291L25.4899 15.4141C25.9877 15.6955 26.2679 16.0635 26.3111 16.4393C26.3111 16.0281 26.0406 15.6148 25.4899 15.3L10.1664 6.55877C9.06699 5.92709 8.17529 6.45448 8.17529 7.71587V7.83C8.17529 6.56664 9.06699 6.0491 10.1664 6.67291Z" fill="white"/>
    </g>
    <defs>
    <linearGradient id="paint0_linear_17_230" x1="17.4654" y1="7.52458" x2="1.86125" y2="11.6653" gradientUnits="userSpaceOnUse">
    <stop stop-color="#00A0FF"/>
    <stop offset="0.00657" stop-color="#00A1FF"/>
    <stop offset="0.2601" stop-color="#00BEFF"/>
    <stop offset="0.5122" stop-color="#00D2FF"/>
    <stop offset="0.7604" stop-color="#00DFFF"/>
    <stop offset="1" stop-color="#00E3FF"/>
    </linearGradient>
    <linearGradient id="paint1_linear_17_230" x1="26.9229" y1="16.438" x2="7.90725" y2="16.438" gradientUnits="userSpaceOnUse">
    <stop stop-color="#FFE000"/>
    <stop offset="0.4087" stop-color="#FFBD00"/>
    <stop offset="0.7754" stop-color="#FFA500"/>
    <stop offset="1" stop-color="#FF9C00"/>
    </linearGradient>
    <linearGradient id="paint2_linear_17_230" x1="19.8444" y1="18.2505" x2="7.24803" y2="39.3642" gradientUnits="userSpaceOnUse">
    <stop stop-color="#FF3A44"/>
    <stop offset="1" stop-color="#C31162"/>
    </linearGradient>
    <linearGradient id="paint3_linear_17_230" x1="6.06672" y1="0.796797" x2="11.6865" y2="10.2265" gradientUnits="userSpaceOnUse">
    <stop stop-color="#32A071"/>
    <stop offset="0.0685" stop-color="#2DA771"/>
    <stop offset="0.4762" stop-color="#15CF74"/>
    <stop offset="0.8009" stop-color="#06E775"/>
    <stop offset="1" stop-color="#00F076"/>
    </linearGradient>
    <clipPath id="clip0_17_230">
    <rect width="106.529" height="31.5643" fill="white" transform="translate(0.333496 0.65564)"/>
    </clipPath>
    </defs>
    </svg>
    