<svg width="21" height="21" viewBox="0 0 21 21" fill="none" xmlns="http://www.w3.org/2000/svg">
<g id="HandTap">
<path id="Vector" d="M4.45827 6.60553C4.45827 5.36233 4.95213 4.17004 5.8312 3.29097C6.71028 2.41189 7.90257 1.91803 9.14577 1.91803C10.389 1.91803 11.5813 2.41189 12.4603 3.29097C13.3394 4.17004 13.8333 5.36233 13.8333 6.60553C13.8333 6.77129 13.7674 6.93026 13.6502 7.04747C13.533 7.16468 13.374 7.23053 13.2083 7.23053C13.0425 7.23053 12.8835 7.16468 12.7663 7.04747C12.6491 6.93026 12.5833 6.77129 12.5833 6.60553C12.5833 5.69385 12.2211 4.81951 11.5764 4.17485C10.9318 3.53019 10.0574 3.16803 9.14577 3.16803C8.23409 3.16803 7.35974 3.53019 6.71509 4.17485C6.07043 4.81951 5.70827 5.69385 5.70827 6.60553C5.70827 6.77129 5.64242 6.93026 5.52521 7.04747C5.408 7.16468 5.24903 7.23053 5.08327 7.23053C4.91751 7.23053 4.75854 7.16468 4.64133 7.04747C4.52412 6.93026 4.45827 6.77129 4.45827 6.60553ZM15.3958 10.043C15.0312 10.0426 14.6723 10.1337 14.352 10.3079C14.2563 10.0117 14.0985 9.73936 13.8891 9.50905C13.6798 9.27874 13.4236 9.09576 13.1379 8.97234C12.8522 8.84892 12.5434 8.7879 12.2322 8.79335C11.921 8.79881 11.6145 8.87061 11.3333 9.00397V6.60553C11.3333 6.02537 11.1028 5.46897 10.6926 5.05873C10.2823 4.6485 9.72593 4.41803 9.14577 4.41803C8.56561 4.41803 8.00921 4.6485 7.59897 5.05873C7.18874 5.46897 6.95827 6.02537 6.95827 6.60553V12.8555L6.65983 12.3766C6.36799 11.8751 5.88887 11.51 5.32787 11.3618C4.76687 11.2135 4.16995 11.2942 3.66842 11.586C3.16689 11.8778 2.80184 12.357 2.65357 12.918C2.5053 13.479 2.58596 14.0759 2.8778 14.5774L5.16842 18.4837C5.20684 18.5597 5.26041 18.6272 5.32584 18.6818C5.39128 18.7364 5.46719 18.777 5.54891 18.8012C5.63063 18.8254 5.71644 18.8326 5.80106 18.8225C5.88568 18.8123 5.96732 18.7849 6.04096 18.742C6.1146 18.6991 6.17869 18.6416 6.22929 18.573C6.27988 18.5044 6.31591 18.4262 6.33517 18.3431C6.35443 18.2601 6.3565 18.174 6.34126 18.0902C6.32602 18.0063 6.29379 17.9265 6.24655 17.8555L3.95827 13.9493C3.89402 13.8426 3.85169 13.7241 3.83373 13.6009C3.81577 13.4776 3.82256 13.352 3.85368 13.2314C3.88481 13.1108 3.93966 12.9976 4.01502 12.8985C4.09038 12.7993 4.18475 12.7162 4.29261 12.6539C4.40047 12.5916 4.51966 12.5514 4.64322 12.5357C4.76678 12.52 4.89223 12.5291 5.01224 12.5624C5.13225 12.5957 5.24442 12.6526 5.3422 12.7298C5.43997 12.8069 5.5214 12.9028 5.5817 13.0118L5.59264 13.0297L7.05202 15.3735C7.12367 15.4891 7.23108 15.5782 7.35796 15.6272C7.48483 15.6763 7.62424 15.6826 7.75502 15.6452C7.88581 15.6078 8.00082 15.5288 8.08262 15.4201C8.16442 15.3114 8.20854 15.179 8.20827 15.043V6.60553C8.20827 6.35689 8.30704 6.11843 8.48285 5.94262C8.65867 5.7668 8.89713 5.66803 9.14577 5.66803C9.39441 5.66803 9.63286 5.7668 9.80868 5.94262C9.9845 6.11843 10.0833 6.35689 10.0833 6.60553V11.918C10.0833 12.0838 10.1491 12.2428 10.2663 12.36C10.3835 12.4772 10.5425 12.543 10.7083 12.543C10.874 12.543 11.033 12.4772 11.1502 12.36C11.2674 12.2428 11.3333 12.0838 11.3333 11.918V10.9805C11.3333 10.7319 11.432 10.4934 11.6079 10.3176C11.7837 10.1418 12.0221 10.043 12.2708 10.043C12.5194 10.043 12.7579 10.1418 12.9337 10.3176C13.1095 10.4934 13.2083 10.7319 13.2083 10.9805V12.543C13.2083 12.7088 13.2741 12.8678 13.3913 12.985C13.5085 13.1022 13.6675 13.168 13.8333 13.168C13.999 13.168 14.158 13.1022 14.2752 12.985C14.3924 12.8678 14.4583 12.7088 14.4583 12.543V12.2305C14.4583 11.9819 14.557 11.7434 14.7329 11.5676C14.9087 11.3918 15.1471 11.293 15.3958 11.293C15.6444 11.293 15.8829 11.3918 16.0587 11.5676C16.2345 11.7434 16.3333 11.9819 16.3333 12.2305V15.043C16.3333 16.7313 15.7786 17.879 15.7739 17.8883C15.6999 18.0366 15.6877 18.2082 15.7402 18.3654C15.7926 18.5226 15.9054 18.6525 16.0536 18.7266C16.1403 18.7705 16.2361 18.7932 16.3333 18.793C16.4494 18.7931 16.5632 18.7608 16.662 18.6999C16.7608 18.6389 16.8407 18.5516 16.8926 18.4477C16.9215 18.3907 17.584 17.0415 17.584 15.043V12.2305C17.584 11.9432 17.5274 11.6587 17.4175 11.3932C17.3075 11.1278 17.1463 10.8866 16.9431 10.6835C16.7399 10.4803 16.4986 10.3192 16.2331 10.2093C15.9676 10.0994 15.6831 10.0429 15.3958 10.043Z" fill="white"/>
</g>
</svg>
