<svg width="56" height="56" viewBox="0 0 56 56" fill="none" xmlns="http://www.w3.org/2000/svg">
    <circle cx="27.8162" cy="28.3318" r="27.5296" fill="#30237B"/>
    <path d="M36.0031 41.5988C35.7191 41.5988 35.4831 41.5035 35.2952 41.3128C35.1072 41.122 35.0133 40.8857 35.0133 40.6038C35.0133 40.4711 35.0374 40.3374 35.0856 40.2026C35.1339 40.0679 35.1982 39.9583 35.2786 39.8741C36.2515 38.9012 37.0199 37.7679 37.5838 36.4744C38.1476 35.1808 38.4296 33.7933 38.4296 32.3117C38.4296 30.826 38.1476 29.4374 37.5838 28.146C37.0199 26.8545 36.2515 25.7223 35.2786 24.7494C35.1982 24.6653 35.1339 24.5559 35.0856 24.4213C35.0374 24.2867 35.0133 24.1521 35.0133 24.0175C35.0133 23.7315 35.1086 23.4945 35.2993 23.3066C35.49 23.1186 35.7264 23.0247 36.0083 23.0247C36.141 23.0247 36.2695 23.0537 36.3939 23.1117C36.5183 23.1698 36.6219 23.2402 36.7048 23.3232C37.8547 24.473 38.7613 25.8163 39.4246 27.3531C40.088 28.8899 40.4197 30.5373 40.4197 32.2955C40.4197 34.0753 40.088 35.7336 39.4246 37.2704C38.7613 38.8072 37.8547 40.1505 36.7048 41.3003C36.6213 41.3832 36.5169 41.4537 36.3916 41.5118C36.2663 41.5698 36.1368 41.5988 36.0031 41.5988ZM32.2271 37.8177C31.9452 37.8177 31.7089 37.7223 31.5182 37.5316C31.3274 37.3409 31.2321 37.1046 31.2321 36.8226C31.2321 36.6899 31.2611 36.5614 31.3191 36.437C31.3772 36.3127 31.4477 36.209 31.5306 36.1261C32.0392 35.6175 32.4317 35.0413 32.7081 34.3974C32.9845 33.7536 33.1227 33.0571 33.1227 32.3078C33.1227 31.5586 32.9845 30.8634 32.7081 30.2222C32.4317 29.5809 32.0392 29.006 31.5306 28.4974C31.4421 28.409 31.3703 28.3025 31.315 28.1782C31.2597 28.0538 31.2321 27.9253 31.2321 27.7926C31.2321 27.5107 31.3274 27.2757 31.5182 27.0878C31.7089 26.8998 31.9452 26.8058 32.2271 26.8058C32.3819 26.8058 32.5201 26.8279 32.6417 26.8722C32.7633 26.9164 32.8684 26.9938 32.9568 27.1043C33.6202 27.7677 34.1454 28.5457 34.5323 29.4383C34.9193 30.3309 35.1128 31.2872 35.1128 32.3073C35.1128 33.3274 34.9193 34.2853 34.5323 35.1808C34.1454 36.0763 33.6202 36.8558 32.9568 37.5192C32.8684 37.6297 32.7633 37.7071 32.6417 37.7513C32.5201 37.7956 32.3819 37.8177 32.2271 37.8177ZM14.2168 41.3003V39.3102C15.3224 39.3102 16.4114 39.2107 17.4839 39.0117C18.5563 38.8127 19.6122 38.5253 20.6514 38.1493C19.5679 37.6187 18.6669 36.889 17.9482 35.9602C17.2296 35.0315 16.8703 33.9702 16.8703 32.7761V29.8241H22.1772V25.5123H26.8539L22.542 17.2202C22.4093 16.977 22.3928 16.7227 22.4923 16.4574C22.5918 16.192 22.7631 15.9985 23.0064 15.8769C23.2496 15.7553 23.4984 15.7332 23.7527 15.8106C24.0069 15.888 24.2004 16.0483 24.3331 16.2915L28.645 24.6167C28.9988 25.2801 28.9828 25.9269 28.5972 26.5571C28.2116 27.1873 27.6415 27.5024 26.887 27.5024H24.1673V29.4925C24.1673 30.1309 23.9399 30.6775 23.4852 31.1322C23.0306 31.5869 22.484 31.8142 21.8455 31.8142H18.8603V32.7761C18.8603 33.6164 19.1202 34.3626 19.6398 35.015C20.1594 35.6673 20.8283 36.104 21.6465 36.3251L22.0445 36.4246C22.7698 36.6064 23.1777 37.0609 23.2684 37.7882C23.3591 38.5154 23.0727 39.067 22.4093 39.4429C21.1489 40.1505 19.8272 40.637 18.4441 40.9023C17.061 41.1677 15.6519 41.3003 14.2168 41.3003Z" fill="white"/>
    </svg>
    