<svg width="141" height="24" viewBox="0 0 141 24" fill="none" xmlns="http://www.w3.org/2000/svg">
    <path
        d="M16.0297 8.42455C15.6542 8.59178 14.8886 8.68263 14.7194 8.71566C14.3005 8.79618 13.8795 8.87876 13.4565 8.9345C12.5918 9.04598 11.8263 9.23592 11.04 9.63024C10 10.1546 8.90838 11.1311 8.7206 12.341C8.5452 13.4785 9.00743 14.773 10.2621 15.0579C11.0153 15.2292 11.9459 15.0083 12.4907 14.4447C12.6558 14.2733 12.7755 14.0648 12.9241 13.8811C13.0912 13.6726 13.3079 13.4971 13.5555 13.3939C13.8362 13.2762 14.1601 13.2287 14.4614 13.2039C14.8638 13.1709 15.2683 13.1131 15.6665 13.0388C16.7499 12.8426 17.8003 12.4586 18.7433 11.8888C19.5935 11.3748 20.4457 10.7946 21.0524 9.99566C21.6653 9.19256 21.851 8.17062 21.5601 7.2003C21.135 5.77991 19.9752 4.52055 18.8651 3.58326C17.3752 2.3239 15.5592 1.46919 13.6381 1.13268C13.0479 1.02945 12.4495 0.973708 11.851 0.96545C5.75527 0.884934 0.689231 5.81294 0.604625 11.9115C0.517956 18.1175 5.52002 23.1756 11.7024 23.1756C15.8192 23.1756 19.414 20.9314 21.3289 17.6013C22.2225 16.0468 21.2918 14.0793 19.5192 13.8109L19.4573 13.8006C18.4235 13.6437 17.3834 14.1185 16.8634 15.0269C15.7821 16.9159 13.6958 18.1526 11.3331 18.0122C11.1969 18.0039 11.0607 17.9915 10.9265 17.973C10.6356 17.9358 10.3405 17.9895 10.0784 18.1175L7.96327 19.1374C7.75898 19.2364 7.52993 19.061 7.5712 18.8359L7.91581 16.982C7.94883 16.8086 7.88692 16.631 7.75692 16.5134C6.58482 15.4687 5.82543 13.9699 5.76146 12.3079C5.63145 8.91384 8.34297 6.12262 11.7045 6.12262C12.5856 6.12262 13.4647 6.31875 14.2613 6.69862C14.6513 6.88443 15.0206 7.11358 15.3632 7.37991C15.5799 7.5492 15.8089 7.70817 16.0008 7.90842C16.0648 7.97449 16.2381 8.13139 16.2381 8.23256C16.2381 8.30275 16.1556 8.36881 16.0297 8.42455Z"
        fill="#30237B" />
    <path
        d="M37.2026 7.85449C36.421 7.38899 35.5052 7.15732 34.4551 7.15732C33.405 7.15732 32.487 7.38682 31.6989 7.84582C30.9108 8.30482 30.3024 8.92622 29.8737 9.70782C29.445 10.4894 29.2285 11.3511 29.2285 12.293C29.2285 13.2586 29.4515 14.1333 29.8997 14.9149C30.3479 15.6965 30.9909 16.3114 31.8331 16.7574C32.6754 17.2056 33.667 17.4286 34.8123 17.4286C35.7541 17.4286 36.5812 17.2878 37.2914 17.0085C38.0015 16.7271 38.5645 16.3677 38.9823 15.926L37.7114 14.3693C37.2935 14.7395 36.8584 15.0102 36.4058 15.1834C35.9533 15.3566 35.4272 15.4432 34.8318 15.4432C33.9723 15.4432 33.2578 15.2375 32.684 14.8261C32.1103 14.4147 31.7422 13.8518 31.5733 13.1352H39.5561C39.6037 12.9078 39.6275 12.6589 39.6275 12.3839C39.6275 11.4182 39.4197 10.537 39.0018 9.74462C38.5839 8.95003 37.9842 8.31999 37.2026 7.85449ZM31.5755 11.4161C31.7422 10.7124 32.08 10.1603 32.5866 9.75978C33.0932 9.35923 33.7168 9.16004 34.4572 9.16004C35.2215 9.16004 35.8602 9.36572 36.3712 9.77709C36.8843 10.1885 37.2069 10.7341 37.3368 11.4139H31.5755V11.4161Z"
        fill="#30237B" />
    <path
        d="M48.6672 7.62282C48.0588 7.31321 47.3616 7.15732 46.5735 7.15732C45.9521 7.15732 45.3546 7.26557 44.7743 7.47992C44.1962 7.69426 43.7156 8.03419 43.3345 8.49969V7.38899H41.1694V17.1969H43.4601V11.4875C43.4601 10.8315 43.7026 10.3011 44.1854 9.89401C44.6682 9.48914 45.2983 9.28562 46.0734 9.28562C46.8009 9.28562 47.3595 9.46965 47.747 9.83989C48.1346 10.2101 48.3294 10.7341 48.3294 11.4139V17.1947H50.6028V10.9484C50.6028 10.1841 50.4318 9.51728 50.0918 8.94353C49.7497 8.37411 49.2756 7.93243 48.6672 7.62282Z"
        fill="#30237B" />
    <path
        d="M60.4778 8.60794C59.6551 7.6423 58.5508 7.15732 57.1673 7.15732C56.2017 7.15732 55.3422 7.3695 54.5909 7.79169C53.8396 8.21605 53.255 8.79414 52.8371 9.52811C52.4193 10.2621 52.2114 11.0762 52.2114 11.9703C52.2114 12.8645 52.4193 13.6743 52.8371 14.3953C53.255 15.1162 53.8396 15.6835 54.5909 16.0949C55.3422 16.5062 56.2017 16.7119 57.1673 16.7119C58.5162 16.7119 59.5901 16.2767 60.389 15.4064V16.1771C60.389 16.9522 60.0946 17.5477 59.5035 17.9655C58.9124 18.3834 58.1525 18.5912 57.2215 18.5912C56.5654 18.5912 55.9787 18.5198 55.4591 18.3769C54.9395 18.234 54.4003 18.0305 53.8396 17.7685L53.0515 19.6824C54.3527 20.2908 55.7838 20.5961 57.3471 20.5961C58.3733 20.5961 59.2848 20.4164 60.0859 20.0592C60.8848 19.7019 61.5105 19.191 61.9652 18.5285C62.4177 17.8659 62.6451 17.0995 62.6451 16.2291V7.38899H60.48V8.60794H60.4778ZM59.5749 13.9752C59.0077 14.4754 58.2954 14.7265 57.4358 14.7265C56.5893 14.7265 55.8878 14.4732 55.3335 13.9666C54.7792 13.4599 54.5021 12.7952 54.5021 11.9703C54.5021 11.4226 54.6298 10.9354 54.8875 10.5111C55.143 10.0867 55.4959 9.75977 55.9441 9.52594C56.3922 9.29211 56.8902 9.17736 57.438 9.17736C58.2975 9.17736 59.0099 9.43501 59.5771 9.94814C60.1444 10.4613 60.428 11.1346 60.428 11.9703C60.4237 12.8061 60.14 13.4751 59.5749 13.9752Z"
        fill="#30237B" />
    <path
        d="M67.2609 14.4601V3.74066H64.9702V14.9256C64.9702 15.6769 65.2084 16.2701 65.6869 16.7053C66.1632 17.1405 66.8019 17.3592 67.6008 17.3592C68.1248 17.3592 68.5729 17.2877 68.9432 17.1448V15.1399C68.6444 15.2482 68.3824 15.3002 68.1551 15.3002C67.5575 15.3002 67.2609 15.0209 67.2609 14.4601Z"
        fill="#30237B" />
    <path d="M72.7365 7.39133H70.4458V17.1993H72.7365V7.39133Z" fill="#30237B" />
    <path
        d="M71.5913 3.54181C71.1864 3.54181 70.8509 3.66739 70.5889 3.91854C70.3269 4.16969 70.1948 4.4858 70.1948 4.86686C70.1948 5.26091 70.3269 5.58351 70.5889 5.83249C70.8509 6.08365 71.1843 6.20922 71.5913 6.20922C71.9962 6.20922 72.3318 6.08365 72.5938 5.83249C72.8557 5.58134 72.9878 5.26091 72.9878 4.86686C72.9878 4.4858 72.8557 4.16969 72.5938 3.91854C72.3296 3.66739 71.9962 3.54181 71.5913 3.54181Z"
        fill="#30237B" />
    <path
        d="M80.6633 11.3642L78.4267 10.9874C77.9374 10.903 77.5888 10.7969 77.3788 10.6648C77.171 10.5328 77.0649 10.3552 77.0649 10.1279C77.0649 9.81828 77.2554 9.56496 77.6365 9.36793C78.0175 9.17091 78.496 9.07347 79.0676 9.07347C79.6652 9.07347 80.2584 9.17091 80.8495 9.36793C81.4406 9.56496 81.9429 9.81178 82.3607 10.1106L83.5061 8.4824C82.8738 8.0169 82.1745 7.68348 81.4124 7.47996C80.6481 7.27644 79.8903 7.17685 79.139 7.17685C77.7794 7.17685 76.7055 7.46264 75.9174 8.03639C75.1293 8.60798 74.7374 9.37226 74.7374 10.3271C74.7374 11.0307 74.9885 11.6218 75.4887 12.0981C75.9888 12.5745 76.7531 12.9035 77.7794 13.0832L80.2497 13.5119C80.9772 13.6202 81.341 13.8995 81.341 14.3542C81.341 14.6876 81.1548 14.9626 80.7867 15.1769C80.4165 15.3912 79.9401 15.4995 79.3556 15.4995C78.5913 15.4995 77.8811 15.3869 77.2251 15.1596C76.5691 14.9323 76.0018 14.6291 75.5255 14.2459L74.3975 15.9455C74.9582 16.398 75.6879 16.7574 76.5907 17.0194C77.4914 17.2814 78.4007 17.4135 79.3188 17.4135C80.1653 17.4135 80.9209 17.2792 81.5834 17.0108C82.246 16.7423 82.7591 16.3612 83.1228 15.8654C83.4866 15.3696 83.6684 14.8002 83.6684 14.1571C83.6684 13.4297 83.4195 12.8278 82.9258 12.3493C82.4322 11.8708 81.6787 11.5417 80.6633 11.3642Z"
        fill="#30237B" />
    <path
        d="M92.8156 7.62291C92.2072 7.3133 91.5101 7.15741 90.722 7.15741C90.1244 7.15741 89.555 7.25917 89.0137 7.46269C88.4703 7.66621 88.0026 7.98665 87.6086 8.42833V3.73871H85.3179V17.197H87.6086V11.5071C87.6086 10.8511 87.851 10.3163 88.3339 9.90493C88.8167 9.49356 89.4467 9.28788 90.2218 9.28788C90.9493 9.28788 91.5079 9.4784 91.8955 9.85946C92.283 10.2405 92.4779 10.7666 92.4779 11.4335V17.197H94.7512V10.9507C94.7512 10.1864 94.5802 9.51954 94.2403 8.94579C93.8982 8.3742 93.424 7.93252 92.8156 7.62291Z"
        fill="#30237B" />
    <path
        d="M101.101 14.7289L98.0051 7.39133H95.5347L99.9558 17.1083L99.7956 17.485C99.6397 17.8423 99.4189 18.1173 99.1331 18.3078C98.8473 18.4983 98.5312 18.5936 98.1848 18.5936C97.6954 18.5936 97.1282 18.4572 96.4852 18.1822L95.8594 20.0442C96.2059 20.2239 96.5999 20.3603 97.0416 20.4556C97.4833 20.5508 97.8946 20.5985 98.2757 20.5985C99.0508 20.5985 99.735 20.3949 100.324 19.9901C100.915 19.5852 101.376 18.9984 101.712 18.2363L106.507 7.39133H104.145L101.101 14.7289Z"
        fill="#30237B" />
    <path
        d="M116.303 15.1921C116.167 15.073 116.097 14.8889 116.097 14.6378V11.113C116.097 9.8724 115.692 8.9046 114.881 8.21393C114.069 7.5211 112.947 7.17685 111.516 7.17685C110.741 7.17685 109.977 7.28076 109.225 7.49078C108.474 7.70079 107.818 8.02556 107.257 8.46508L108.403 10.1474C108.855 9.81394 109.349 9.56496 109.879 9.40474C110.41 9.24452 110.921 9.16225 111.41 9.16225C112.161 9.16225 112.759 9.33762 113.2 9.69053C113.642 10.0434 113.867 10.5349 113.88 11.1671H111.984C110.217 11.1671 108.866 11.4529 107.931 12.0267C106.993 12.5983 106.525 13.3994 106.525 14.4256C106.525 15.0578 106.705 15.6013 107.062 16.0538C107.42 16.5063 107.9 16.8484 108.502 17.0735C109.104 17.3009 109.758 17.4135 110.462 17.4135C111.237 17.4135 111.936 17.2879 112.555 17.0367C113.174 16.7856 113.683 16.3872 114.077 15.8373C114.22 16.3136 114.504 16.673 114.928 16.9112C115.35 17.1493 115.831 17.2684 116.368 17.2684C116.762 17.2684 117.072 17.2143 117.299 17.1082V15.3003C117.167 15.3479 117.02 15.3718 116.851 15.3718C116.623 15.3718 116.442 15.3133 116.303 15.1921ZM112.832 14.9063C112.217 15.335 111.499 15.5515 110.676 15.5515C110.091 15.5515 109.634 15.4345 109.308 15.2029C108.978 14.9712 108.816 14.6746 108.816 14.3174C108.816 13.8887 109.063 13.5379 109.559 13.2716C110.055 13.0031 110.879 12.8689 112.038 12.8689H113.863C113.789 13.7977 113.447 14.4776 112.832 14.9063Z"
        fill="#30237B" />
    <path
        d="M127.631 15.1921C127.494 15.073 127.425 14.8889 127.425 14.6378V11.113C127.425 9.8724 127.02 8.9046 126.208 8.21393C125.396 7.5211 124.275 7.17685 122.844 7.17685C122.068 7.17685 121.304 7.28076 120.553 7.49078C119.802 7.70079 119.146 8.02556 118.585 8.46508L119.73 10.1474C120.183 9.81394 120.676 9.56496 121.207 9.40474C121.737 9.24452 122.248 9.16225 122.738 9.16225C123.489 9.16225 124.086 9.33762 124.528 9.69053C124.97 10.0434 125.197 10.5349 125.208 11.1671H123.311C121.545 11.1671 120.194 11.4529 119.258 12.0267C118.321 12.5983 117.853 13.3994 117.853 14.4256C117.853 15.0578 118.033 15.6013 118.39 16.0538C118.747 16.5063 119.228 16.8484 119.83 17.0735C120.432 17.3009 121.086 17.4135 121.789 17.4135C122.564 17.4135 123.264 17.2879 123.883 17.0367C124.502 16.7856 125.011 16.3872 125.405 15.8373C125.548 16.3136 125.831 16.673 126.256 16.9112C126.678 17.1493 127.159 17.2684 127.696 17.2684C128.09 17.2684 128.399 17.2143 128.627 17.1082V15.3003C128.495 15.3479 128.347 15.3718 128.178 15.3718C127.951 15.3718 127.769 15.3133 127.631 15.1921ZM124.16 14.9063C123.545 15.335 122.826 15.5515 122.004 15.5515C121.419 15.5515 120.962 15.4345 120.635 15.2029C120.306 14.9712 120.144 14.6746 120.144 14.3174C120.144 13.8887 120.391 13.5379 120.886 13.2716C121.382 13.0031 122.207 12.8689 123.365 12.8689H125.191C125.117 13.7977 124.775 14.4776 124.16 14.9063Z"
        fill="#30237B" />
    <path
        d="M133.483 7.61423C132.905 7.85888 132.441 8.24427 132.095 8.76823V7.39123H129.93V17.1992H132.22V12.0635C132.22 11.1563 132.498 10.4852 133.052 10.05C133.606 9.61478 134.331 9.39612 135.226 9.39612C135.559 9.39612 135.899 9.42642 136.245 9.48488V7.35441C135.936 7.28296 135.613 7.24615 135.28 7.24615C134.663 7.24615 134.063 7.36957 133.483 7.61423Z"
        fill="#30237B" />
    <path
        d="M138.932 6.20922C139.337 6.20922 139.673 6.08365 139.935 5.83249C140.197 5.58134 140.329 5.26091 140.329 4.86686C140.329 4.4858 140.197 4.16969 139.935 3.91854C139.673 3.66739 139.337 3.54181 138.932 3.54181C138.527 3.54181 138.192 3.66739 137.93 3.91854C137.668 4.16969 137.536 4.4858 137.536 4.86686C137.536 5.26091 137.668 5.58351 137.93 5.83249C138.194 6.08365 138.527 6.20922 138.932 6.20922Z"
        fill="#30237B" />
    <path d="M140.078 7.39133H137.787V17.1993H140.078V7.39133Z" fill="#30237B" />
</svg>
    