<svg width="58" height="58" viewBox="0 0 58 58" fill="none" xmlns="http://www.w3.org/2000/svg">
    <circle cx="28.6973" cy="29.0783" r="28.6973" fill="#F8E5F9"/>
    <path d="M38.8955 19.3212H18.4983C18.0065 19.3212 17.5349 19.5081 17.1872 19.8408C16.8394 20.1735 16.644 20.6247 16.644 21.0952V37.0613C16.644 37.5318 16.8394 37.9831 17.1872 38.3158C17.5349 38.6485 18.0065 38.8354 18.4983 38.8354H20.0501C20.2256 38.8354 20.3975 38.7878 20.5458 38.6981C20.6941 38.6084 20.8128 38.4803 20.8881 38.3287C21.3389 37.418 22.0507 36.6485 22.9407 36.1097C23.8307 35.5708 24.8623 35.2848 25.9155 35.2848C26.9687 35.2848 28.0003 35.5708 28.8903 36.1097C29.7803 36.6485 30.4921 37.418 30.9429 38.3287C31.0182 38.4803 31.1368 38.6084 31.2852 38.6981C31.4335 38.7878 31.6054 38.8354 31.7808 38.8354H38.8955C39.3873 38.8354 39.859 38.6485 40.2067 38.3158C40.5545 37.9831 40.7498 37.5318 40.7498 37.0613V21.0952C40.7498 20.6247 40.5545 20.1735 40.2067 19.8408C39.859 19.5081 39.3873 19.3212 38.8955 19.3212ZM23.1341 30.8523C23.1341 30.326 23.2972 29.8115 23.6028 29.3739C23.9084 28.9363 24.3428 28.5952 24.8511 28.3938C25.3593 28.1924 25.9186 28.1397 26.4581 28.2424C26.9977 28.3451 27.4933 28.5985 27.8823 28.9707C28.2713 29.3428 28.5362 29.817 28.6435 30.3331C28.7508 30.8493 28.6957 31.3844 28.4852 31.8706C28.2747 32.3569 27.9182 32.7725 27.4608 33.0648C27.0034 33.3572 26.4656 33.5133 25.9155 33.5133C25.1778 33.5133 24.4703 33.233 23.9487 32.7339C23.4271 32.2349 23.1341 31.558 23.1341 30.8523ZM38.8955 37.0613H32.3395C31.5652 35.7878 30.3981 34.7747 28.9983 34.1608C29.7001 33.563 30.1954 32.7751 30.4186 31.9018C30.6418 31.0285 30.5822 30.1109 30.2479 29.2706C29.9136 28.4304 29.3202 27.7072 28.5465 27.197C27.7728 26.6867 26.8552 26.4135 25.9155 26.4135C24.9758 26.4135 24.0582 26.6867 23.2845 27.197C22.5108 27.7072 21.9174 28.4304 21.5831 29.2706C21.2487 30.1109 21.1892 31.0285 21.4124 31.9018C21.6356 32.7751 22.1309 33.563 22.8327 34.1608C21.4329 34.7747 20.2658 35.7878 19.4915 37.0613H18.4983V21.0952H38.8955V37.0613ZM20.3526 25.5302V23.7562C20.3526 23.521 20.4503 23.2953 20.6242 23.129C20.7981 22.9627 21.0339 22.8692 21.2798 22.8692H36.1141C36.36 22.8692 36.5958 22.9627 36.7697 23.129C36.9436 23.2953 37.0412 23.521 37.0412 23.7562V34.4003C37.0412 34.6356 36.9436 34.8612 36.7697 35.0275C36.5958 35.1939 36.36 35.2873 36.1141 35.2873H34.2598C34.0139 35.2873 33.7781 35.1939 33.6042 35.0275C33.4303 34.8612 33.3327 34.6356 33.3327 34.4003C33.3327 34.1651 33.4303 33.9395 33.6042 33.7731C33.7781 33.6068 34.0139 33.5133 34.2598 33.5133H35.1869V24.6432H22.2069V25.5302C22.2069 25.7655 22.1092 25.9911 21.9354 26.1574C21.7615 26.3238 21.5257 26.4172 21.2798 26.4172C21.0339 26.4172 20.7981 26.3238 20.6242 26.1574C20.4503 25.9911 20.3526 25.7655 20.3526 25.5302Z" fill="#25232F"/>
    </svg>
    