<svg width="58" height="59" viewBox="0 0 58 59" fill="none" xmlns="http://www.w3.org/2000/svg">
    <circle cx="28.6296" cy="29.5958" r="28.6296" fill="#FFEAEA"/>
    <path d="M37.2164 19.5033H34.425V18.4297C34.425 18.2588 34.3572 18.095 34.2364 17.9742C34.1156 17.8534 33.9517 17.7855 33.7809 17.7855C33.61 17.7855 33.4462 17.8534 33.3254 17.9742C33.2046 18.095 33.1367 18.2588 33.1367 18.4297V19.5033H24.1184V18.4297C24.1184 18.2588 24.0505 18.095 23.9297 17.9742C23.8089 17.8534 23.6451 17.7855 23.4742 17.7855C23.3034 17.7855 23.1396 17.8534 23.0187 17.9742C22.8979 18.095 22.8301 18.2588 22.8301 18.4297V19.5033H20.0387C19.6401 19.5033 19.2578 19.6617 18.9759 19.9435C18.694 20.2254 18.5356 20.6077 18.5356 21.0063V38.1841C18.5356 38.5827 18.694 38.965 18.9759 39.2469C19.2578 39.5288 19.6401 39.6871 20.0387 39.6871H37.2164C37.6151 39.6871 37.9974 39.5288 38.2792 39.2469C38.5611 38.965 38.7195 38.5827 38.7195 38.1841V21.0063C38.7195 20.6077 38.5611 20.2254 38.2792 19.9435C37.9974 19.6617 37.6151 19.5033 37.2164 19.5033ZM20.0387 20.7916H22.8301V21.8652C22.8301 22.0361 22.8979 22.1999 23.0187 22.3207C23.1396 22.4415 23.3034 22.5094 23.4742 22.5094C23.6451 22.5094 23.8089 22.4415 23.9297 22.3207C24.0505 22.1999 24.1184 22.0361 24.1184 21.8652V20.7916H33.1367V21.8652C33.1367 22.0361 33.2046 22.1999 33.3254 22.3207C33.4462 22.4415 33.61 22.5094 33.7809 22.5094C33.9517 22.5094 34.1156 22.4415 34.2364 22.3207C34.3572 22.1999 34.425 22.0361 34.425 21.8652V20.7916H37.2164C37.2734 20.7916 37.328 20.8142 37.3683 20.8545C37.4085 20.8948 37.4311 20.9494 37.4311 21.0063V24.6566H19.824V21.0063C19.824 20.9494 19.8466 20.8948 19.8869 20.8545C19.9271 20.8142 19.9817 20.7916 20.0387 20.7916ZM37.2164 38.3988H20.0387C19.9817 38.3988 19.9271 38.3762 19.8869 38.3359C19.8466 38.2956 19.824 38.241 19.824 38.1841V25.9449H37.4311V38.1841C37.4311 38.241 37.4085 38.2956 37.3683 38.3359C37.328 38.3762 37.2734 38.3988 37.2164 38.3988ZM32.9478 29.14C33.0684 29.2608 33.1361 29.4245 33.1361 29.5952C33.1361 29.7659 33.0684 29.9296 32.9478 30.0504L27.7944 35.2037C27.6737 35.3244 27.5099 35.3921 27.3392 35.3921C27.1685 35.3921 27.0048 35.3244 26.884 35.2037L24.3074 32.6271C24.1936 32.505 24.1316 32.3435 24.1346 32.1766C24.1375 32.0097 24.2051 31.8505 24.3231 31.7324C24.4412 31.6144 24.6004 31.5468 24.7673 31.5439C24.9342 31.5409 25.0957 31.6029 25.2178 31.7167L27.3392 33.837L32.0373 29.14C32.1581 29.0194 32.3218 28.9516 32.4926 28.9516C32.6633 28.9516 32.827 29.0194 32.9478 29.14Z" fill="#25232F"/>
    </svg>
    