<svg width="58" height="59" viewBox="0 0 58 59" fill="none" xmlns="http://www.w3.org/2000/svg">
    <circle cx="28.6973" cy="29.5783" r="28.6973" fill="#F8E5F9"/>
    <path d="M38.8955 19.8212H18.4983C18.0065 19.8212 17.5349 20.0081 17.1872 20.3408C16.8394 20.6735 16.644 21.1247 16.644 21.5952V37.5613C16.644 38.0318 16.8394 38.4831 17.1872 38.8158C17.5349 39.1485 18.0065 39.3354 18.4983 39.3354H20.0501C20.2256 39.3354 20.3975 39.2878 20.5458 39.1981C20.6941 39.1084 20.8128 38.9803 20.8881 38.8287C21.3389 37.918 22.0507 37.1485 22.9407 36.6097C23.8307 36.0708 24.8623 35.7848 25.9155 35.7848C26.9687 35.7848 28.0003 36.0708 28.8903 36.6097C29.7803 37.1485 30.4921 37.918 30.9429 38.8287C31.0182 38.9803 31.1368 39.1084 31.2852 39.1981C31.4335 39.2878 31.6054 39.3354 31.7808 39.3354H38.8955C39.3873 39.3354 39.859 39.1485 40.2067 38.8158C40.5545 38.4831 40.7498 38.0318 40.7498 37.5613V21.5952C40.7498 21.1247 40.5545 20.6735 40.2067 20.3408C39.859 20.0081 39.3873 19.8212 38.8955 19.8212ZM23.1341 31.3523C23.1341 30.826 23.2972 30.3115 23.6028 29.8739C23.9084 29.4363 24.3428 29.0952 24.8511 28.8938C25.3593 28.6924 25.9186 28.6397 26.4581 28.7424C26.9977 28.8451 27.4933 29.0985 27.8823 29.4707C28.2713 29.8428 28.5362 30.317 28.6435 30.8331C28.7508 31.3493 28.6957 31.8844 28.4852 32.3706C28.2747 32.8569 27.9182 33.2725 27.4608 33.5648C27.0034 33.8572 26.4656 34.0133 25.9155 34.0133C25.1778 34.0133 24.4703 33.733 23.9487 33.2339C23.4271 32.7349 23.1341 32.058 23.1341 31.3523ZM38.8955 37.5613H32.3395C31.5652 36.2878 30.3981 35.2747 28.9983 34.6608C29.7001 34.063 30.1954 33.2751 30.4186 32.4018C30.6418 31.5285 30.5822 30.6109 30.2479 29.7706C29.9136 28.9304 29.3202 28.2072 28.5465 27.697C27.7728 27.1867 26.8552 26.9135 25.9155 26.9135C24.9758 26.9135 24.0582 27.1867 23.2845 27.697C22.5108 28.2072 21.9174 28.9304 21.5831 29.7706C21.2487 30.6109 21.1892 31.5285 21.4124 32.4018C21.6356 33.2751 22.1309 34.063 22.8327 34.6608C21.4329 35.2747 20.2658 36.2878 19.4915 37.5613H18.4983V21.5952H38.8955V37.5613ZM20.3526 26.0302V24.2562C20.3526 24.021 20.4503 23.7953 20.6242 23.629C20.7981 23.4627 21.0339 23.3692 21.2798 23.3692H36.1141C36.36 23.3692 36.5958 23.4627 36.7697 23.629C36.9436 23.7953 37.0412 24.021 37.0412 24.2562V34.9003C37.0412 35.1356 36.9436 35.3612 36.7697 35.5275C36.5958 35.6939 36.36 35.7873 36.1141 35.7873H34.2598C34.0139 35.7873 33.7781 35.6939 33.6042 35.5275C33.4303 35.3612 33.3327 35.1356 33.3327 34.9003C33.3327 34.6651 33.4303 34.4395 33.6042 34.2731C33.7781 34.1068 34.0139 34.0133 34.2598 34.0133H35.1869V25.1432H22.2069V26.0302C22.2069 26.2655 22.1092 26.4911 21.9354 26.6574C21.7615 26.8238 21.5257 26.9172 21.2798 26.9172C21.0339 26.9172 20.7981 26.8238 20.6242 26.6574C20.4503 26.4911 20.3526 26.2655 20.3526 26.0302Z" fill="#25232F"/>
    </svg>
    