<svg width="26" height="24" viewBox="0 0 26 24" fill="none" xmlns="http://www.w3.org/2000/svg">
    <path d="M24.3595 7.14278C24.1833 6.99527 23.9653 6.90136 23.7334 6.87298C23.5014 6.8446 23.2659 6.88304 23.0568 6.98341L18.1535 9.32716L14.0597 2.79935C13.9545 2.63184 13.806 2.49328 13.6285 2.39709C13.4511 2.30091 13.2508 2.25037 13.047 2.25037C12.8433 2.25037 12.643 2.30091 12.4655 2.39709C12.2881 2.49328 12.1396 2.63184 12.0343 2.79935L7.94058 9.32997L3.03921 6.98622C2.83056 6.88674 2.59595 6.84864 2.36483 6.8767C2.1337 6.90475 1.91635 6.99772 1.74006 7.14392C1.56377 7.29013 1.43639 7.48307 1.3739 7.69852C1.31141 7.91397 1.3166 8.14234 1.38882 8.35497L5.0021 18.9825C5.03843 19.0892 5.09928 19.1868 5.18014 19.268C5.26101 19.3491 5.35983 19.4118 5.46932 19.4514C5.57881 19.491 5.69616 19.5065 5.81272 19.4967C5.92927 19.487 6.04205 19.4522 6.14273 19.395C6.16714 19.3809 8.66421 18 13.047 18C17.4298 18 19.9269 19.3809 19.9494 19.394C20.0501 19.4518 20.1631 19.4871 20.2799 19.4972C20.3967 19.5073 20.5145 19.492 20.6243 19.4525C20.7342 19.4129 20.8334 19.3502 20.9145 19.2688C20.9956 19.1874 21.0566 19.0896 21.0929 18.9825L24.7062 8.35778C24.7805 8.14509 24.7872 7.916 24.7255 7.69964C24.6637 7.48328 24.5363 7.28944 24.3595 7.14278ZM19.883 17.7028C18.7111 17.2256 16.3751 16.5 13.047 16.5C9.7189 16.5 7.38296 17.2256 6.21109 17.7028L3.15542 8.71872L7.55679 10.8253C7.8232 10.9514 8.12916 10.9772 8.41438 10.8975C8.69961 10.8179 8.94343 10.6386 9.09781 10.395L13.047 4.0931L16.9962 10.3931C17.1508 10.6363 17.3944 10.8153 17.6793 10.8949C17.9643 10.9746 18.2699 10.949 18.5363 10.8234L22.9386 8.71872L19.883 17.7028ZM17.7218 14.7028C17.6899 14.8763 17.5954 15.0335 17.4549 15.1468C17.3144 15.2601 17.1368 15.3223 16.9533 15.3225C16.9075 15.3224 16.8617 15.3186 16.8166 15.3112C14.3211 14.9 11.771 14.9 9.27554 15.3112C9.07145 15.3458 8.86141 15.3011 8.69164 15.187C8.52187 15.0729 8.40627 14.8987 8.37027 14.7028C8.33427 14.5069 8.38081 14.3052 8.49967 14.1422C8.61853 13.9793 8.79996 13.8683 9.00406 13.8337C11.6791 13.3925 14.413 13.3925 17.088 13.8337C17.2917 13.8681 17.4729 13.9785 17.5919 14.1409C17.7109 14.3033 17.758 14.5043 17.7228 14.7L17.7218 14.7028Z" fill="black"/>
    </svg>
    